<svg width="25" height="24" viewBox="0 0 25 24" fill="none" xmlns="http://www.w3.org/2000/svg">
<path d="M23 21.5V10.8783C23 10.4279 22.7976 10.0014 22.4488 9.71652L13.9488 2.77485C13.3966 2.32392 12.6034 2.32392 12.0512 2.77486L3.5512 9.71652C3.20237 10.0014 3 10.4279 3 10.8783V21.5C3 22.3284 3.67157 23 4.5 23H8.255C9.08343 23 9.755 22.3284 9.755 21.5V17C9.755 15.8954 10.6504 15 11.755 15H14.255C15.3596 15 16.255 15.8954 16.255 17V21.5C16.255 22.3284 16.9266 23 17.755 23H21.5C22.3284 23 23 22.3284 23 21.5Z" fill="#4A4D51" stroke="#4A4D51" stroke-width="1.5" stroke-linecap="round" stroke-linejoin="round"/>
</svg>
