<svg width="24" height="24" viewBox="0 0 24 24" fill="none" xmlns="http://www.w3.org/2000/svg">
<path d="M1 7.25581C1 6.15124 1.89543 5.25581 3 5.25581H5.3044C6.0407 5.25581 6.71745 4.85125 7.06605 4.2027L7.68395 3.05311C8.03255 2.40456 8.7093 2 9.4456 2L12 2H14.5544C15.2907 2 15.9675 2.40456 16.316 3.05311L16.934 4.2027C17.2825 4.85125 17.9593 5.25581 18.6956 5.25581H21C22.1046 5.25581 23 6.15124 23 7.25581V20C23 21.1046 22.1046 22 21 22H3C1.89543 22 1 21.1046 1 20V7.25581Z" stroke="#A3A8B2" stroke-width="1.5"/>
<circle cx="12" cy="13" r="5" stroke="#A3A8B2" stroke-width="1.5"/>
</svg>
