<svg width="16" height="16" viewBox="0 0 16 16" fill="none" xmlns="http://www.w3.org/2000/svg">
<g clip-path="url(#clip0_1_2161)">
<path fill-rule="evenodd" clip-rule="evenodd" d="M0.833496 7.99967C0.833496 4.04163 4.04212 0.833008 8.00016 0.833008C11.9582 0.833008 15.1668 4.04163 15.1668 7.99967C15.1668 11.9577 11.9582 15.1663 8.00016 15.1663C4.04212 15.1663 0.833496 11.9577 0.833496 7.99967ZM8.5 4C8.5 3.72386 8.27614 3.5 8 3.5C7.72386 3.5 7.5 3.72386 7.5 4V8C7.5 8.18939 7.607 8.36252 7.77639 8.44721L10.4431 9.78055C10.6901 9.90404 10.9904 9.80393 11.1139 9.55694C11.2374 9.30995 11.1373 9.00961 10.8903 8.88612L8.5 7.69098V4Z" fill="#C1C5CD"/>
</g>
<defs>
<clipPath id="clip0_1_2161">
<rect width="16" height="16" fill="white"/>
</clipPath>
</defs>
</svg>
