<svg width="16" height="16" viewBox="0 0 16 16" fill="none" xmlns="http://www.w3.org/2000/svg">
<path fill-rule="evenodd" clip-rule="evenodd" d="M2.58478 5.86957C2.58478 2.93376 5.06745 0.584961 8.09073 0.584961C11.114 0.584961 13.5967 2.93376 13.5967 5.86957C13.5967 9.99693 10.7519 13.0041 8.83674 14.8589C8.42059 15.2619 7.76086 15.2619 7.34471 14.8589C5.42952 13.0041 2.58478 9.99693 2.58478 5.86957ZM7.99982 8C9.10439 8 9.99982 7.10457 9.99982 6C9.99982 4.89543 9.10439 4 7.99982 4C6.89525 4 5.99982 4.89543 5.99982 6C5.99982 7.10457 6.89525 8 7.99982 8Z" fill="#C1C5CD"/>
</svg>
