<svg width="16" height="16" viewBox="0 0 16 16" fill="none" xmlns="http://www.w3.org/2000/svg">
<path fill-rule="evenodd" clip-rule="evenodd" d="M11.5 1C11.7761 1 12 1.22386 12 1.5V2.23828H13.2C14.4703 2.23828 15.5 3.26803 15.5 4.53828V5.64258H15L1 5.64258H0.5V4.53828C0.5 3.26803 1.52975 2.23828 2.8 2.23828H4V1.5C4 1.22386 4.22386 1 4.5 1C4.77614 1 5 1.22386 5 1.5V2.23828H11V1.5C11 1.22386 11.2239 1 11.5 1ZM0.5 6.64258V12.7C0.5 13.9703 1.52975 15 2.8 15H13.2C14.4703 15 15.5 13.9703 15.5 12.7V6.64258H15L1 6.64258H0.5Z" fill="#C1C5CD"/>
</svg>
