<svg width="34" height="34" viewBox="0 0 34 34" fill="none" xmlns="http://www.w3.org/2000/svg">
<circle cx="17" cy="17" r="16" fill="#F3F6FF" stroke="#E0E8FF"/>
<path fill-rule="evenodd" clip-rule="evenodd" d="M11.585 14.8696C11.585 11.9338 14.0676 9.58496 17.0909 9.58496C20.1142 9.58496 22.5969 11.9338 22.5969 14.8696C22.5969 18.9969 19.7521 22.0041 17.8369 23.8589C17.4208 24.2619 16.761 24.2619 16.3449 23.8589C14.4297 22.0041 11.585 18.9969 11.585 14.8696ZM17 17C18.1046 17 19 16.1046 19 15C19 13.8954 18.1046 13 17 13C15.8954 13 15 13.8954 15 15C15 16.1046 15.8954 17 17 17Z" fill="#B3C6FC"/>
</svg>
