<svg width="34" height="34" viewBox="0 0 34 34" fill="none" xmlns="http://www.w3.org/2000/svg">
<circle cx="17" cy="17" r="16" fill="#F3F6FF" stroke="#E0E8FF"/>
<g clip-path="url(#clip0_1570_8083)">
<path fill-rule="evenodd" clip-rule="evenodd" d="M9.83398 16.9997C9.83398 13.0416 13.0426 9.83301 17.0007 9.83301C20.9587 9.83301 24.1673 13.0416 24.1673 16.9997C24.1673 20.9577 20.9587 24.1663 17.0007 24.1663C13.0426 24.1663 9.83398 20.9577 9.83398 16.9997ZM17.5005 13C17.5005 12.7239 17.2766 12.5 17.0005 12.5C16.7243 12.5 16.5005 12.7239 16.5005 13V17C16.5005 17.1894 16.6075 17.3625 16.7769 17.4472L19.4435 18.7805C19.6905 18.904 19.9909 18.8039 20.1144 18.5569C20.2379 18.31 20.1378 18.0096 19.8908 17.8861L17.5005 16.691V13Z" fill="#B3C6FC"/>
</g>
<defs>
<clipPath id="clip0_1570_8083">
<rect width="16" height="16" fill="white" transform="translate(9 9)"/>
</clipPath>
</defs>
</svg>
