<svg width="34" height="34" viewBox="0 0 34 34" fill="none" xmlns="http://www.w3.org/2000/svg">
<circle cx="17" cy="17" r="16" fill="#F3F6FF" stroke="#E0E8FF"/>
<path fill-rule="evenodd" clip-rule="evenodd" d="M20.5 10C20.7761 10 21 10.2239 21 10.5V11.2383H22.2C23.4703 11.2383 24.5 12.268 24.5 13.5383V14.6426H24L10 14.6426H9.5V13.5383C9.5 12.268 10.5297 11.2383 11.8 11.2383H13V10.5C13 10.2239 13.2239 10 13.5 10C13.7761 10 14 10.2239 14 10.5V11.2383H20V10.5C20 10.2239 20.2239 10 20.5 10ZM9.5 15.6426V21.7C9.5 22.9703 10.5297 24 11.8 24H22.2C23.4703 24 24.5 22.9703 24.5 21.7V15.6426H24L10 15.6426H9.5Z" fill="#B3C6FC"/>
</svg>
