<svg width="32" height="32" viewBox="0 0 32 32" fill="none" xmlns="http://www.w3.org/2000/svg">
<path d="M14.5744 5.19087C15.0234 3.8089 16.9785 3.8089 17.4276 5.19087L19.2564 10.8195C19.4572 11.4376 20.0332 11.856 20.683 11.856H26.6014C28.0544 11.856 28.6586 13.7154 27.483 14.5695L22.695 18.0483C22.1693 18.4302 21.9493 19.1073 22.1501 19.7253L23.979 25.354C24.428 26.7359 22.8463 27.8851 21.6707 27.031L16.8827 23.5523C16.3569 23.1704 15.645 23.1704 15.1193 23.5523L10.3313 27.031C9.15569 27.8851 7.57397 26.736 8.023 25.354L9.85186 19.7253C10.0527 19.1073 9.83269 18.4302 9.30696 18.0483L4.51892 14.5695C3.34335 13.7154 3.94751 11.856 5.4006 11.856H11.3189C11.9688 11.856 12.5447 11.4376 12.7455 10.8195L14.5744 5.19087Z" fill="#DBDFE8"/>
</svg>
