<svg width="84" height="83" viewBox="0 0 84 83" fill="none" xmlns="http://www.w3.org/2000/svg">
<g filter="url(#filter0_d_901_6266)">
<g filter="url(#filter1_d_901_6266)">
<circle cx="42" cy="37" r="18" fill="#B99AF7" fill-opacity="0.9" shape-rendering="crispEdges"/>
<circle cx="42" cy="37" r="18" stroke="#9B7CD9" stroke-width="1.125" shape-rendering="crispEdges"/>
</g>
<path d="M48.2997 40.0589C49.8883 42.2334 48.3848 44.466 45.2278 45.3793M45.9178 37.5169C44.689 35.9309 44.3868 34.5591 44.6218 33.494C45.1935 30.9023 47.9376 31.3596 47.7471 29.3396C47.2897 27.6133 43.4708 27.0643 39.324 28.0056C33.1114 29.4158 30.1005 34.1038 30.4819 37.9686C30.7933 41.1238 33.9867 44.5153 38.9528 45.4998C39.7069 45.6493 40.4364 45.7414 41.1347 45.7825" stroke="white" stroke-width="0.9" stroke-miterlimit="10"/>
<path d="M36.5796 34.5103C37.3585 34.5103 37.9898 33.879 37.9898 33.1001C37.9898 32.3213 37.3585 31.6899 36.5796 31.6899C35.8008 31.6899 35.1694 32.3213 35.1694 33.1001C35.1694 33.879 35.8008 34.5103 36.5796 34.5103Z" stroke="white" stroke-width="0.9" stroke-miterlimit="10"/>
<path d="M41.6963 32.3126C42.4752 32.3126 43.1065 31.6812 43.1065 30.9024C43.1065 30.1236 42.4752 29.4922 41.6963 29.4922C40.9175 29.4922 40.2861 30.1236 40.2861 30.9024C40.2861 31.6812 40.9175 32.3126 41.6963 32.3126Z" stroke="white" stroke-width="0.9" stroke-miterlimit="10"/>
<path d="M33.9146 39.0797C34.6934 39.0797 35.3248 38.4483 35.3248 37.6695C35.3248 36.8906 34.6934 36.2593 33.9146 36.2593C33.1358 36.2593 32.5044 36.8906 32.5044 37.6695C32.5044 38.4483 33.1358 39.0797 33.9146 39.0797Z" stroke="white" stroke-width="0.9" stroke-miterlimit="10"/>
<path d="M37.5596 42.774C38.3384 42.774 38.9698 42.1426 38.9698 41.3638C38.9698 40.585 38.3384 39.9536 37.5596 39.9536C36.7808 39.9536 36.1494 40.585 36.1494 41.3638C36.1494 42.1426 36.7808 42.774 37.5596 42.774Z" stroke="white" stroke-width="0.9" stroke-miterlimit="10"/>
<path d="M46.3689 42.2665L44.0146 40.5984L50.1246 31.0505C50.7337 30.0987 52.0146 29.849 52.9366 30.5023C53.8586 31.1556 54.0476 32.4468 53.3515 33.337L46.3689 42.2665Z" stroke="white" stroke-width="0.9" stroke-miterlimit="10"/>
<path d="M44.0157 40.5977L44.2759 40.2305L44.1496 40.141L43.995 40.1481L44.0157 40.5977ZM39.9727 46.9746L39.7618 46.577C39.5815 46.6727 39.4882 46.8776 39.5343 47.0763C39.5805 47.2751 39.7546 47.4179 39.9585 47.4243L39.9727 46.9746ZM46.3699 42.2658L46.8149 42.1987L46.7863 42.0094L46.6301 41.8986L46.3699 42.2658ZM44.0157 40.5977C43.995 40.1481 43.9947 40.1481 43.9945 40.1482C43.9944 40.1482 43.9942 40.1482 43.994 40.1482C43.9937 40.1482 43.9934 40.1482 43.993 40.1482C43.9923 40.1483 43.9914 40.1483 43.9905 40.1484C43.9887 40.1485 43.9866 40.1486 43.9841 40.1487C43.9791 40.149 43.9729 40.1495 43.9654 40.15C43.9505 40.1512 43.9306 40.153 43.9062 40.1558C43.8576 40.1614 43.7909 40.1708 43.7106 40.1868C43.5507 40.2186 43.3325 40.2771 43.0935 40.3852C42.611 40.6032 42.0412 41.0256 41.7113 41.8208L42.5426 42.1657C42.7661 41.6269 43.1407 41.3515 43.4642 41.2053C43.6282 41.1311 43.7785 41.0909 43.8862 41.0695C43.9397 41.0588 43.9817 41.053 44.0083 41.05C44.0215 41.0485 44.0308 41.0477 44.0357 41.0473C44.0382 41.0471 44.0395 41.047 44.0396 41.047C44.0397 41.047 44.0395 41.047 44.039 41.0471C44.0387 41.0471 44.0383 41.0471 44.0379 41.0471C44.0377 41.0471 44.0375 41.0471 44.0372 41.0471C44.0371 41.0471 44.0369 41.0472 44.0369 41.0472C44.0367 41.0472 44.0364 41.0472 44.0157 40.5977ZM41.7113 41.8208C41.5541 42.1997 41.4509 42.6608 41.3583 43.116C41.2626 43.5862 41.1763 44.0607 41.0536 44.5266C40.8055 45.4692 40.4463 46.2139 39.7618 46.577L40.1836 47.3721C41.2232 46.8205 41.6644 45.7415 41.924 44.7557C42.0552 44.2573 42.1495 43.7414 42.2402 43.2955C42.334 42.8345 42.423 42.4539 42.5426 42.1657L41.7113 41.8208ZM39.9727 46.9746C39.9585 47.4243 39.9587 47.4243 39.9589 47.4243C39.959 47.4244 39.9592 47.4244 39.9594 47.4244C39.9599 47.4244 39.9604 47.4244 39.961 47.4244C39.9623 47.4244 39.964 47.4245 39.9661 47.4246C39.9704 47.4247 39.9763 47.4248 39.984 47.425C39.9992 47.4253 40.0209 47.4256 40.0489 47.4259C40.1046 47.4263 40.185 47.4263 40.2861 47.4245C40.4883 47.4209 40.7745 47.41 41.1149 47.381C41.7928 47.3232 42.7001 47.1927 43.5915 46.8974C44.4785 46.6036 45.3889 46.1339 46.0285 45.3723C46.6824 44.5936 47.0185 43.5505 46.8149 42.1987L45.9249 42.3328C46.0929 43.4479 45.8152 44.2267 45.3393 44.7935C44.8491 45.3772 44.1137 45.7764 43.3085 46.0431C42.5078 46.3083 41.6763 46.4299 41.0386 46.4842C40.7212 46.5112 40.4554 46.5213 40.2699 46.5247C40.1773 46.5263 40.1049 46.5263 40.0565 46.5259C40.0323 46.5257 40.014 46.5254 40.0023 46.5251C39.9964 46.525 39.9921 46.5249 39.9895 46.5249C39.9882 46.5248 39.9874 46.5248 39.9869 46.5248C39.9867 46.5248 39.9865 46.5248 39.9865 46.5248C39.9865 46.5248 39.9866 46.5248 39.9866 46.5248C39.9867 46.5248 39.9868 46.5248 39.9727 46.9746ZM46.6301 41.8986L44.2759 40.2305L43.7555 40.9648L46.1097 42.633L46.6301 41.8986Z" fill="white"/>
</g>
<defs>
<filter id="filter0_d_901_6266" x="13.4375" y="12.4375" width="57.125" height="57.125" filterUnits="userSpaceOnUse" color-interpolation-filters="sRGB">
<feFlood flood-opacity="0" result="BackgroundImageFix"/>
<feColorMatrix in="SourceAlpha" type="matrix" values="0 0 0 0 0 0 0 0 0 0 0 0 0 0 0 0 0 0 127 0" result="hardAlpha"/>
<feMorphology radius="10" operator="erode" in="SourceAlpha" result="effect1_dropShadow_901_6266"/>
<feOffset dy="4"/>
<feGaussianBlur stdDeviation="10"/>
<feComposite in2="hardAlpha" operator="out"/>
<feColorMatrix type="matrix" values="0 0 0 0 0 0 0 0 0 0 0 0 0 0 0 0 0 0 0.1 0"/>
<feBlend mode="normal" in2="BackgroundImageFix" result="effect1_dropShadow_901_6266"/>
<feBlend mode="normal" in="SourceGraphic" in2="effect1_dropShadow_901_6266" result="shape"/>
</filter>
<filter id="filter1_d_901_6266" x="0.9375" y="0.4375" width="82.125" height="82.125" filterUnits="userSpaceOnUse" color-interpolation-filters="sRGB">
<feFlood flood-opacity="0" result="BackgroundImageFix"/>
<feColorMatrix in="SourceAlpha" type="matrix" values="0 0 0 0 0 0 0 0 0 0 0 0 0 0 0 0 0 0 127 0" result="hardAlpha"/>
<feMorphology radius="11.25" operator="erode" in="SourceAlpha" result="effect1_dropShadow_901_6266"/>
<feOffset dy="4.5"/>
<feGaussianBlur stdDeviation="16.875"/>
<feComposite in2="hardAlpha" operator="out"/>
<feColorMatrix type="matrix" values="0 0 0 0 0 0 0 0 0 0 0 0 0 0 0 0 0 0 0.25 0"/>
<feBlend mode="normal" in2="BackgroundImageFix" result="effect1_dropShadow_901_6266"/>
<feBlend mode="normal" in="SourceGraphic" in2="effect1_dropShadow_901_6266" result="shape"/>
</filter>
</defs>
</svg>
