<svg width="16" height="16" viewBox="0 0 16 16" fill="none" xmlns="http://www.w3.org/2000/svg">
<path d="M12.8541 4.47329C12.0144 3.31752 10.7898 2.49929 9.40067 2.16579C8.01153 1.83228 6.54897 2.00539 5.27606 2.65397C4.00315 3.30255 3.00343 4.38403 2.45672 5.7039C1.91002 7.02377 1.85219 8.4954 2.29366 9.8541C2.73513 11.2128 3.64691 12.3694 4.86501 13.1158C6.08311 13.8623 7.52758 14.1496 8.93861 13.9261C10.3496 13.7026 11.6346 12.983 12.5624 11.8967C13.2714 11.0666 13.7362 10.0641 13.9161 9" stroke="#7C9DF8" stroke-width="1.25" stroke-linecap="round"/>
<path d="M10.334 5.2998H12.92C13.2882 5.2998 13.5867 5.00133 13.5867 4.63314V2.04711" stroke="#7C9DF8" stroke-width="1.25" stroke-linecap="round" stroke-linejoin="round"/>
</svg>
