<svg width="24" height="24" viewBox="0 0 24 24" fill="none" xmlns="http://www.w3.org/2000/svg">
<path d="M15.495 19.0373L14.7528 18.9291L15.495 19.0373ZM16.3475 18.5452L16.6249 17.8484L16.3475 18.5452ZM17.5224 19.0128L17.7998 18.316L17.5224 19.0128ZM20.8345 13.2761L20.3697 13.8647L20.8345 13.2761ZM21.3271 15.8457L21.9766 16.2207L21.3271 15.8457ZM19.8421 12.4924L20.3069 11.9038L19.8421 12.4924ZM19.8419 11.5079L20.3067 12.0965L19.8419 11.5079ZM21.3269 8.15458L21.9764 7.77958L21.3269 8.15458ZM20.8343 10.7242L20.3695 10.1356L20.8343 10.7242ZM19.9939 5.84574L19.3443 6.22074L19.9939 5.84574ZM16.3473 5.45514L16.07 4.7583L16.3473 5.45514ZM15.495 4.9627L14.7528 5.07093L15.495 4.9627ZM15.3125 3.71139L16.0546 3.60316L15.3125 3.71139ZM8.50586 4.96269L7.76371 4.85446L8.50586 4.96269ZM7.65312 5.45513L7.93046 4.7583L7.65312 5.45513ZM3.16613 10.7242L2.70133 11.3128L3.16613 10.7242ZM2.67356 8.15458L2.02404 7.77958L2.67356 8.15458ZM4.15856 11.5079L4.62337 10.9193L4.15856 11.5079ZM4.15835 12.4924L4.62315 13.081L4.15835 12.4924ZM3.16592 13.2761L2.70112 12.6875L3.16592 13.2761ZM6.478 19.0128L6.75535 19.7096L6.478 19.0128ZM7.6529 18.5452L7.37555 17.8484L7.6529 18.5452ZM8.50586 19.0373L7.76371 19.1455L8.50586 19.0373ZM7.76371 19.1455L7.94619 20.3968L9.43049 20.1804L9.24801 18.9291L7.76371 19.1455ZM6.75535 19.7096L7.93024 19.242L7.37555 17.8484L6.20066 18.316L6.75535 19.7096ZM2.02383 16.2207L3.35684 18.5296L4.65588 17.7796L3.32287 15.4707L2.02383 16.2207ZM3.69354 11.9038L2.70112 12.6875L3.63073 13.8647L4.62315 13.081L3.69354 11.9038ZM4.62337 10.9193L3.63094 10.1356L2.70133 11.3128L3.69376 12.0965L4.62337 10.9193ZM3.32308 8.52958L4.65609 6.22074L3.35705 5.47074L2.02404 7.77958L3.32308 8.52958ZM6.20087 5.68435L7.37577 6.15197L7.93046 4.7583L6.75555 4.29068L6.20087 5.68435ZM7.94619 3.60316L7.76371 4.85446L9.24801 5.07092L9.43049 3.81962L7.94619 3.60316ZM13.3334 1.25H10.6674V2.75H13.3334V1.25ZM16.2371 4.85447L16.0546 3.60316L14.5703 3.81962L14.7528 5.07093L16.2371 4.85447ZM17.2449 4.29068L16.07 4.7583L16.6246 6.15197L17.7996 5.68435L17.2449 4.29068ZM21.9764 7.77958L20.6434 5.47074L19.3443 6.22074L20.6774 8.52958L21.9764 7.77958ZM20.3067 12.0965L21.2991 11.3128L20.3695 10.1356L19.3771 10.9193L20.3067 12.0965ZM19.3773 13.081L20.3697 13.8647L21.2993 12.6875L20.3069 11.9038L19.3773 13.081ZM20.6776 15.4707L19.3446 17.7796L20.6436 18.5296L21.9766 16.2207L20.6776 15.4707ZM17.7998 18.316L16.6249 17.8484L16.0702 19.242L17.2451 19.7096L17.7998 18.316ZM16.0546 20.3968L16.2371 19.1455L14.7528 18.9291L14.5703 20.1804L16.0546 20.3968ZM10.6674 22.75H13.3334V21.25H10.6674V22.75ZM14.5703 20.1804C14.4808 20.7946 13.9541 21.25 13.3334 21.25V22.75C14.6989 22.75 15.8576 21.748 16.0546 20.3968L14.5703 20.1804ZM14.7504 18.9623C14.7504 18.9512 14.7512 18.9401 14.7528 18.9291L16.2371 19.1455C16.246 19.0849 16.2504 19.0236 16.2504 18.9623H14.7504ZM16.6549 17.8629C15.8087 17.3743 14.7504 17.9848 14.7504 18.9623H16.2504C16.2504 19.1399 16.0583 19.2505 15.9049 19.1619L16.6549 17.8629ZM16.6249 17.8484C16.6352 17.8525 16.6452 17.8573 16.6549 17.8629L15.9049 19.1619C15.9579 19.1926 16.0132 19.2193 16.0702 19.242L16.6249 17.8484ZM19.3446 17.7796C19.0342 18.3171 18.3765 18.5455 17.7998 18.316L17.2451 19.7096C18.5138 20.2146 19.9608 19.7121 20.6436 18.5296L19.3446 17.7796ZM20.3697 13.8647C20.8568 14.2494 20.9879 14.9332 20.6776 15.4707L21.9766 16.2207C22.6593 15.0382 22.371 13.5338 21.2993 12.6875L20.3697 13.8647ZM19.4048 13.0997C19.3952 13.0942 19.386 13.0879 19.3773 13.081L20.3069 11.9038C20.2588 11.8658 20.2079 11.8314 20.1548 11.8007L19.4048 13.0997ZM19.4046 10.9006C18.5578 11.3895 18.5589 12.6113 19.4048 13.0997L20.1548 11.8007C20.308 11.8891 20.3087 12.1107 20.1546 12.1996L19.4046 10.9006ZM19.3771 10.9193C19.3858 10.9124 19.395 10.9061 19.4046 10.9006L20.1546 12.1996C20.2077 12.169 20.2586 12.1345 20.3067 12.0965L19.3771 10.9193ZM20.6774 8.52958C20.9877 9.06711 20.8566 9.75093 20.3695 10.1356L21.2991 11.3128C22.3708 10.4666 22.6591 8.96214 21.9764 7.77958L20.6774 8.52958ZM17.7996 5.68435C18.3763 5.45482 19.034 5.68322 19.3443 6.22074L20.6434 5.47074C19.9606 4.28819 18.5136 3.78573 17.2449 4.29068L17.7996 5.68435ZM16.6547 6.13743C16.645 6.143 16.635 6.14786 16.6246 6.15197L16.07 4.7583C16.013 4.78097 15.9578 4.80774 15.9047 4.83839L16.6547 6.13743ZM14.7504 5.03771C14.7504 6.01419 15.8077 6.62645 16.6547 6.13743L15.9047 4.83839C16.059 4.74928 16.2504 4.86103 16.2504 5.03771H14.7504ZM14.7528 5.07093C14.7512 5.05991 14.7504 5.04881 14.7504 5.03771H16.2504C16.2504 4.97641 16.246 4.91516 16.2371 4.85447L14.7528 5.07093ZM13.3334 2.75C13.9541 2.75 14.4808 3.20543 14.5703 3.81962L16.0546 3.60316C15.8576 2.25195 14.6989 1.25 13.3334 1.25V2.75ZM9.43049 3.81962C9.52006 3.20543 10.0467 2.75 10.6674 2.75V1.25C9.30191 1.25 8.14324 2.25195 7.94619 3.60316L9.43049 3.81962ZM9.25042 5.03771C9.25042 5.04882 9.24961 5.05992 9.24801 5.07092L7.76371 4.85446C7.75486 4.91515 7.75042 4.97639 7.75042 5.03771H9.25042ZM7.34579 6.13744C8.1925 6.62629 9.25042 6.01492 9.25042 5.03771H7.75042C7.75042 4.8607 7.94209 4.74966 8.09579 4.8384L7.34579 6.13744ZM7.37577 6.15197C7.36544 6.14786 7.35542 6.143 7.34579 6.13744L8.09579 4.8384C8.04269 4.80774 7.98743 4.78097 7.93046 4.7583L7.37577 6.15197ZM4.65609 6.22074C4.96643 5.68322 5.62418 5.45482 6.20087 5.68435L6.75555 4.29068C5.48685 3.78573 4.0398 4.28819 3.35705 5.47074L4.65609 6.22074ZM3.63094 10.1356C3.14382 9.75093 3.01274 9.06711 3.32308 8.52958L2.02404 7.77958C1.3413 8.96214 1.62968 10.4666 2.70133 11.3128L3.63094 10.1356ZM4.59578 10.9006C4.60542 10.9061 4.61464 10.9124 4.62337 10.9193L3.69376 12.0965C3.74188 12.1345 3.79269 12.169 3.84578 12.1996L4.59578 10.9006ZM4.59559 13.0997C5.44153 12.6113 5.44268 11.3895 4.59578 10.9006L3.84578 12.1996C3.69172 12.1107 3.69248 11.8891 3.84559 11.8007L4.59559 13.0997ZM4.62315 13.081C4.61442 13.0879 4.60521 13.0942 4.59559 13.0997L3.84559 11.8007C3.7925 11.8314 3.74168 11.8658 3.69354 11.9038L4.62315 13.081ZM3.32287 15.4707C3.01253 14.9332 3.14361 14.2494 3.63073 13.8647L2.70112 12.6875C1.62947 13.5338 1.34109 15.0382 2.02383 16.2207L3.32287 15.4707ZM6.20066 18.316C5.62397 18.5455 4.96622 18.3171 4.65588 17.7796L3.35684 18.5296C4.03959 19.7121 5.48664 20.2146 6.75535 19.7096L6.20066 18.316ZM7.3456 17.8629C7.35521 17.8573 7.36521 17.8525 7.37555 17.8484L7.93024 19.242C7.98724 19.2193 8.04251 19.1926 8.0956 19.1619L7.3456 17.8629ZM9.25042 18.9623C9.25042 17.9841 8.1914 17.3745 7.3456 17.8629L8.0956 19.1619C7.94274 19.2502 7.75042 19.1404 7.75042 18.9623H9.25042ZM7.94619 20.3968C8.14324 21.748 9.30191 22.75 10.6674 22.75V21.25C10.0467 21.25 9.52006 20.7946 9.43049 20.1804L7.94619 20.3968ZM9.24801 18.9291C9.24961 18.9401 9.25042 18.9512 9.25042 18.9623H7.75042C7.75042 19.0236 7.75486 19.0849 7.76371 19.1455L9.24801 18.9291Z" fill="#4A4D51"/>
<circle cx="12.0005" cy="12" r="3" fill="white" stroke="#4A4D51" stroke-width="1.5"/>
</svg>
