<svg width="25" height="24" viewBox="0 0 25 24" fill="none" xmlns="http://www.w3.org/2000/svg">
<path d="M7.375 0.75C7.78921 0.75 8.125 1.08579 8.125 1.5V2.75H16.625V1.5C16.625 1.08579 16.9608 0.75 17.375 0.75C17.7892 0.75 18.125 1.08579 18.125 1.5V2.75H19.375C21.4461 2.75 23.125 4.42893 23.125 6.5V7.75L1.625 7.75V6.5C1.625 4.42893 3.30393 2.75 5.375 2.75H6.625V1.5C6.625 1.08579 6.96079 0.75 7.375 0.75Z" fill="#4A4D51"/>
<path fill-rule="evenodd" clip-rule="evenodd" d="M1.625 9.25V19.5C1.625 21.5711 3.30393 23.25 5.375 23.25H19.375C21.4461 23.25 23.125 21.5711 23.125 19.5V9.25L1.625 9.25ZM16.3318 11.9051C16.6603 12.1574 16.7221 12.6282 16.4699 12.9568L13.0372 17.4273C12.3381 18.3377 10.9667 18.34 10.2647 17.4319L8.28164 14.8669C8.0283 14.5392 8.08857 14.0682 8.41628 13.8148C8.74398 13.5615 9.21501 13.6217 9.46836 13.9494L11.4514 16.5144C11.5517 16.6442 11.7476 16.6438 11.8474 16.5138L15.2801 12.0432C15.5324 11.7147 16.0032 11.6529 16.3318 11.9051Z" fill="#4A4D51"/>
</svg>
