<svg width="81" height="24" viewBox="0 0 81 24" fill="none" xmlns="http://www.w3.org/2000/svg">
<path d="M14.204 3.72C16.172 3.84 18.164 5.616 18.164 8.352C18.164 12.624 14.228 14.736 10.58 14.736C10.028 14.736 9.52397 14.712 9.06797 14.64C9.11597 15.96 9.23597 16.944 9.40397 17.448C8.94797 17.88 7.57997 18.24 6.37997 18.24C3.42797 18.24 2.27597 16.992 2.27597 14.88C2.27597 12.384 2.49197 8.832 2.80397 7.08C2.29997 7.248 1.84397 7.464 1.41197 7.68C1.05197 7.152 0.835969 6.408 0.835969 5.616C0.835969 2.664 3.11597 0.959999 7.79597 0.959999C11.108 0.959999 13.724 1.704 14.204 3.72ZM9.52397 10.344C10.772 10.344 11.708 9.648 11.708 8.376C11.708 7.224 10.748 6.552 9.09197 6.36C9.04397 7.536 9.01997 8.928 8.99597 10.32C9.16397 10.344 9.35597 10.344 9.52397 10.344ZM25.0533 18.24C20.8293 18.24 18.0693 16.176 18.0693 13.056C18.0693 10.896 19.5333 9.504 21.1173 9.12C21.6933 7.416 23.6853 6.768 25.8693 6.768C29.9013 6.768 32.7093 8.832 32.7093 12.144C32.7093 16.296 29.2053 18.24 25.0533 18.24ZM25.4133 14.784C26.2053 14.784 26.7093 14.16 26.7093 12.648C26.7093 11.232 26.1813 10.584 25.4133 10.584C24.5973 10.584 24.1413 11.232 24.1413 12.648C24.1413 14.16 24.5493 14.784 25.4133 14.784ZM44.4764 6.816C47.2604 6.816 48.9404 8.952 48.9404 11.976C48.9404 15.648 46.3004 18.144 43.2764 18.144C42.2444 18.144 41.0924 17.928 40.3724 17.328C40.4684 20.064 40.7324 20.808 41.4044 21.576C40.6604 22.344 39.2684 23.04 37.8044 23.04C35.2604 23.04 34.1324 21.936 34.1324 19.608C34.1324 17.184 34.2764 12.648 34.2764 10.536C34.2764 8.64 34.1564 8.088 33.9404 7.584C34.5644 7.08 35.6924 6.768 36.9164 6.768C38.8364 6.768 40.1804 7.68 40.2524 9.312C41.0924 7.68 42.5084 6.816 44.4764 6.816ZM41.4764 14.592C42.4364 14.592 42.8924 13.704 42.8924 12.36C42.8924 11.352 42.5804 10.632 41.8124 10.632C40.8284 10.632 40.4444 11.88 40.3484 14.232C40.7084 14.376 41.1404 14.592 41.4764 14.592ZM60.4608 6.816C63.2448 6.816 64.9248 8.952 64.9248 11.976C64.9248 15.648 62.2848 18.144 59.2608 18.144C58.2288 18.144 57.0768 17.928 56.3568 17.328C56.4528 20.064 56.7168 20.808 57.3888 21.576C56.6448 22.344 55.2528 23.04 53.7888 23.04C51.2448 23.04 50.1168 21.936 50.1168 19.608C50.1168 17.184 50.2608 12.648 50.2608 10.536C50.2608 8.64 50.1408 8.088 49.9248 7.584C50.5488 7.08 51.6768 6.768 52.9008 6.768C54.8208 6.768 56.1648 7.68 56.2368 9.312C57.0768 7.68 58.4928 6.816 60.4608 6.816ZM57.4608 14.592C58.4208 14.592 58.8768 13.704 58.8768 12.36C58.8768 11.352 58.5648 10.632 57.7968 10.632C56.8128 10.632 56.4288 11.88 56.3328 14.232C56.6928 14.376 57.1248 14.592 57.4608 14.592ZM76.1572 6.768C78.6532 6.768 80.0452 7.632 80.0452 10.92C80.0452 15.048 79.3492 18.216 76.9252 19.344C76.7812 21.36 74.5252 23.04 70.5412 23.04C67.0852 23.04 65.5732 22.008 65.5732 20.088C65.5732 19.032 66.1252 18.192 66.4372 17.88C66.9412 18.264 68.2612 18.672 69.8932 18.672C71.8372 18.672 73.8052 18.048 73.9732 15.816C73.0612 16.896 71.6932 17.52 69.7252 17.52C67.2772 17.52 65.8132 16.416 65.8132 14.016C65.8132 12.624 66.0532 11.4 66.0532 10.056C66.0532 8.952 65.9572 8.04 65.5972 7.44C66.3412 6.96 67.2052 6.72 68.5972 6.72C70.7572 6.72 72.1732 7.536 72.1732 9.024C72.1732 10.104 71.9812 11.592 71.9812 12.648C71.9812 13.2 72.2452 13.464 72.7492 13.464C73.2052 13.464 73.5892 13.368 73.9252 13.224C73.8292 10.92 73.5892 8.472 73.3492 7.656C73.7332 7.176 74.9092 6.768 76.1572 6.768Z" fill="url(#paint0_linear_1379_6432)"/>
<defs>
<linearGradient id="paint0_linear_1379_6432" x1="0.5" y1="13" x2="80.5" y2="13" gradientUnits="userSpaceOnUse">
<stop stop-color="#7CAAF9"/>
<stop offset="0.2" stop-color="#7C9DF9"/>
<stop offset="0.75" stop-color="#96A3FF"/>
<stop offset="1" stop-color="#C3B4FF"/>
</linearGradient>
</defs>
</svg>
