<svg width="80" height="24" viewBox="0 0 80 24" fill="none" xmlns="http://www.w3.org/2000/svg">
<path d="M13.704 3.72C15.672 3.84 17.664 5.616 17.664 8.352C17.664 12.624 13.728 14.736 10.08 14.736C9.52797 14.736 9.02397 14.712 8.56797 14.64C8.61597 15.96 8.73597 16.944 8.90397 17.448C8.44797 17.88 7.07997 18.24 5.87997 18.24C2.92797 18.24 1.77597 16.992 1.77597 14.88C1.77597 12.384 1.99197 8.832 2.30397 7.08C1.79997 7.248 1.34397 7.464 0.911969 7.68C0.551969 7.152 0.335969 6.408 0.335969 5.616C0.335969 2.664 2.61597 0.959999 7.29597 0.959999C10.608 0.959999 13.224 1.704 13.704 3.72ZM9.02397 10.344C10.272 10.344 11.208 9.648 11.208 8.376C11.208 7.224 10.248 6.552 8.59197 6.36C8.54397 7.536 8.51997 8.928 8.49597 10.32C8.66397 10.344 8.85597 10.344 9.02397 10.344ZM24.5533 18.24C20.3293 18.24 17.5693 16.176 17.5693 13.056C17.5693 10.896 19.0333 9.504 20.6173 9.12C21.1933 7.416 23.1853 6.768 25.3693 6.768C29.4013 6.768 32.2093 8.832 32.2093 12.144C32.2093 16.296 28.7053 18.24 24.5533 18.24ZM24.9133 14.784C25.7053 14.784 26.2093 14.16 26.2093 12.648C26.2093 11.232 25.6813 10.584 24.9133 10.584C24.0973 10.584 23.6413 11.232 23.6413 12.648C23.6413 14.16 24.0493 14.784 24.9133 14.784ZM43.9764 6.816C46.7604 6.816 48.4404 8.952 48.4404 11.976C48.4404 15.648 45.8004 18.144 42.7764 18.144C41.7444 18.144 40.5924 17.928 39.8724 17.328C39.9684 20.064 40.2324 20.808 40.9044 21.576C40.1604 22.344 38.7684 23.04 37.3044 23.04C34.7604 23.04 33.6324 21.936 33.6324 19.608C33.6324 17.184 33.7764 12.648 33.7764 10.536C33.7764 8.64 33.6564 8.088 33.4404 7.584C34.0644 7.08 35.1924 6.768 36.4164 6.768C38.3364 6.768 39.6804 7.68 39.7524 9.312C40.5924 7.68 42.0084 6.816 43.9764 6.816ZM40.9764 14.592C41.9364 14.592 42.3924 13.704 42.3924 12.36C42.3924 11.352 42.0804 10.632 41.3124 10.632C40.3284 10.632 39.9444 11.88 39.8484 14.232C40.2084 14.376 40.6404 14.592 40.9764 14.592ZM59.9608 6.816C62.7448 6.816 64.4248 8.952 64.4248 11.976C64.4248 15.648 61.7848 18.144 58.7608 18.144C57.7288 18.144 56.5768 17.928 55.8568 17.328C55.9528 20.064 56.2168 20.808 56.8888 21.576C56.1448 22.344 54.7528 23.04 53.2888 23.04C50.7448 23.04 49.6168 21.936 49.6168 19.608C49.6168 17.184 49.7608 12.648 49.7608 10.536C49.7608 8.64 49.6408 8.088 49.4248 7.584C50.0488 7.08 51.1768 6.768 52.4008 6.768C54.3208 6.768 55.6648 7.68 55.7368 9.312C56.5768 7.68 57.9928 6.816 59.9608 6.816ZM56.9608 14.592C57.9208 14.592 58.3768 13.704 58.3768 12.36C58.3768 11.352 58.0648 10.632 57.2968 10.632C56.3128 10.632 55.9288 11.88 55.8328 14.232C56.1928 14.376 56.6248 14.592 56.9608 14.592ZM75.6572 6.768C78.1532 6.768 79.5452 7.632 79.5452 10.92C79.5452 15.048 78.8492 18.216 76.4252 19.344C76.2812 21.36 74.0252 23.04 70.0412 23.04C66.5852 23.04 65.0732 22.008 65.0732 20.088C65.0732 19.032 65.6252 18.192 65.9372 17.88C66.4412 18.264 67.7612 18.672 69.3932 18.672C71.3372 18.672 73.3052 18.048 73.4732 15.816C72.5612 16.896 71.1932 17.52 69.2252 17.52C66.7772 17.52 65.3132 16.416 65.3132 14.016C65.3132 12.624 65.5532 11.4 65.5532 10.056C65.5532 8.952 65.4572 8.04 65.0972 7.44C65.8412 6.96 66.7052 6.72 68.0972 6.72C70.2572 6.72 71.6732 7.536 71.6732 9.024C71.6732 10.104 71.4812 11.592 71.4812 12.648C71.4812 13.2 71.7452 13.464 72.2492 13.464C72.7052 13.464 73.0892 13.368 73.4252 13.224C73.3292 10.92 73.0892 8.472 72.8492 7.656C73.2332 7.176 74.4092 6.768 75.6572 6.768Z" fill="url(#paint0_linear_698_7588)"/>
<defs>
<linearGradient id="paint0_linear_698_7588" x1="0" y1="13" x2="80" y2="13" gradientUnits="userSpaceOnUse">
<stop stop-color="#7CAAF9"/>
<stop offset="0.2" stop-color="#7C9DF9"/>
<stop offset="0.75" stop-color="#96A3FF"/>
<stop offset="1" stop-color="#C3B4FF"/>
</linearGradient>
</defs>
</svg>
