<svg width="16" height="16" viewBox="0 0 16 16" fill="none" xmlns="http://www.w3.org/2000/svg">
<path d="M4.77979 12.5L4.77979 7.46875C4.77979 6.91647 4.33207 6.46875 3.77979 6.46875L3.27979 6.46875C2.7275 6.46875 2.27979 6.91647 2.27979 7.46875L2.27979 12.5C2.27979 13.0523 2.7275 13.5 3.27979 13.5L3.77979 13.5C4.33207 13.5 4.77979 13.0523 4.77979 12.5Z" stroke="#A3A8B2" stroke-linecap="round" stroke-linejoin="round"/>
<path d="M4.78125 11.5V6.96269C4.78125 6.56784 4.89813 6.18183 5.11715 5.85329L7.67605 2.01494C8.0261 1.48987 8.76899 1.41631 9.21521 1.86253L9.26436 1.91168C9.80003 2.44735 9.98707 3.23968 9.74751 3.95835L8.94792 6.35714H11.7464C12.9987 6.35714 13.9429 7.49489 13.7121 8.72572L13.1229 11.8686C12.9455 12.8145 12.1195 13.5 11.1571 13.5H6.78125C5.67668 13.5 4.78125 12.6046 4.78125 11.5Z" stroke="#A3A8B2" stroke-linecap="round" stroke-linejoin="round"/>
</svg>
