<svg width="16" height="16" viewBox="0 0 16 16" fill="none" xmlns="http://www.w3.org/2000/svg">
<path d="M3.94385 12.5L3.94385 7.46875C3.94385 6.91647 3.49613 6.46875 2.94385 6.46875L2.6001 6.46875C2.04781 6.46875 1.6001 6.91647 1.6001 7.46875L1.6001 12.5C1.6001 13.0523 2.04781 13.5 2.6001 13.5L2.94385 13.5C3.49613 13.5 3.94385 13.0523 3.94385 12.5Z" fill="#7C9DF8"/>
<path d="M4.76025 12V6.96269C4.76025 6.56784 4.87713 6.18183 5.09615 5.85329L7.65506 2.01494C8.0051 1.48987 8.748 1.41631 9.19421 1.86253L9.24336 1.91168C9.77903 2.44735 9.96607 3.23968 9.72652 3.95835L8.92692 6.35714H11.7254C12.9777 6.35714 13.9219 7.49489 13.6911 8.72572L13.1019 11.8686C12.9245 12.8145 12.0985 13.5 11.1361 13.5H6.26025C5.43183 13.5 4.76025 12.8284 4.76025 12Z" fill="#7C9DF8" stroke="#7C9DF8" stroke-width="0.5" stroke-linecap="round" stroke-linejoin="round"/>
</svg>
